<svg xmlns:dc="http://purl.org/dc/elements/1.1/" xmlns:cc="http://creativecommons.org/ns#" xmlns:rdf="http://www.w3.org/1999/02/22-rdf-syntax-ns#" xmlns:svg="http://www.w3.org/2000/svg" xmlns="http://www.w3.org/2000/svg" xmlns:xlink="http://www.w3.org/1999/xlink" id="svg725079" viewBox="0 0 1024 768" height="768px" width="1024px" version="1.1">
    <metadata id="metadata725085">
      <rdf:rdf>
        <cc:work rdf:about="">
          <dc:format>image/svg+xml</dc:format>
          <dc:type rdf:resource="http://purl.org/dc/dcmitype/StillImage"></dc:type>
        </cc:work>
      </rdf:rdf>
    </metadata>
    <defs id="defs725083"></defs>
    <linearGradient spreadMethod="pad" y2="30%" x2="-10%" y1="120%" x1="30%" id="3d_gradient2-logo-750d94ad-e49d-4d38-98a4-3dd965ae7ad8">
      <stop id="stop725060" stop-opacity="1" stop-color="#ffffff" offset="0%"></stop>
      <stop id="stop725062" stop-opacity="1" stop-color="#000000" offset="100%"></stop>
    </linearGradient>
    <linearGradient gradientTransform="rotate(-30)" spreadMethod="pad" y2="30%" x2="-10%" y1="120%" x1="30%" id="3d_gradient3-logo-750d94ad-e49d-4d38-98a4-3dd965ae7ad8">
      <stop id="stop725065" stop-opacity="1" stop-color="#ffffff" offset="0%"></stop>
      <stop id="stop725067" stop-opacity="1" stop-color="#cccccc" offset="50%"></stop>
      <stop id="stop725069" stop-opacity="1" stop-color="#000000" offset="100%"></stop>
    </linearGradient>
    <g id="logo-group">
      <image xlink:href="" id="container" x="272" y="144" width="480" height="480" style="display: none;" transform="translate(0 0)"></image>
      <g id="logo-center" transform="translate(262.24203133333333 0)">
        <image xlink:href="" id="icon_container" style="display: none;" x="0" y="0"></image>
        <g id="slogan" style="font-style:normal;font-weight:normal;font-size:32px;line-height:1;font-family:'Brandmark Sans 32 Color';font-variant-ligatures:none;text-align:center;text-anchor:middle" transform="translate(0 0)"></g>
        <g id="title" style="font-style:normal;font-weight:normal;font-size:72px;line-height:1;font-family:'Brandmark Sans 32 Color';font-variant-ligatures:normal;text-align:center;text-anchor:middle" transform="translate(0 0)">
          <g id="path725088" aria-label="Z" transform="translate(0 315.478) translate(50 35.71999999999999) scale(1.2833333333333334) translate(-356.37369 50.4)"><path class="c1" d="M120.88478,81.27628H76.24074v-9.36081h44.64404V81.27628z M76.24074,112.95901h44.64404v9.36081H76.24074 V112.95901z" transform="translate(280.13295 -122.31547)" stroke-width="0" stroke-linejoin="miter" stroke-miterlimit="2" fill="#ffffff" stroke="#ffffff"></path><polygon class="c3" points="76.24074,102.87814 120.88478,81.27628 120.88478,91.35715 76.24074,112.95901 " transform="translate(280.13295 -122.31547)" stroke-width="0" stroke-linejoin="miter" stroke-miterlimit="2" fill="#c8c8c8" stroke="#c8c8c8"></polygon></g>
          <g id="path725090" aria-label="e" transform="translate(0 315.478) translate(108.65233733333338 48.65599999999999) scale(1.2833333333333334) translate(-402.07681 40.32)"><path class="c1" d="M76.42018,102.51809c0-13.39313,8.28076-20.52179,22.17798-20.52179 c14.40112,0,22.17786,7.70471,22.17786,20.52179v1.51215h-34.203c0.57605,5.83252,4.75244,9.28882,12.02515,9.28882 c5.25635,0,9.00073-1.72815,10.80078-5.18445h10.87305c-2.16016,9.72083-9.93689,14.90527-21.67383,14.90527 C84.19679,123.03988,76.42018,115.33523,76.42018,102.51809z M109.32704,96.68563 c-1.87219-3.16833-5.47253-4.96844-10.72888-4.96844c-5.11255,0-8.85681,1.72815-10.729,4.96844H109.32704z" transform="translate(325.65663 -122.3163)" stroke-width="0" stroke-linejoin="miter" stroke-miterlimit="2" fill="#ffffff" stroke="#ffffff"></path></g>
          <g id="path725092" aria-label="n" transform="translate(0 315.478) translate(168.9288998333334 48.65599999999999) scale(1.2833333333333334) translate(-449.04556 40.32)"><path class="c1" d="M98.56227,91.71719c-6.40845,0-10.8728,3.16827-10.8728,9.00079v21.60181H77.60841V82.71639h10.08105 v4.46436c2.37622-3.38428,6.40845-5.18445,13.03296-5.18445c10.94507,0,18.7937,7.05664,18.7937,18.72168v21.60181h-10.08081 v-21.60181C109.43532,95.17348,105.18703,91.71719,98.56227,91.71719z" transform="translate(371.43715 -122.3163)" stroke-width="0" stroke-linejoin="miter" stroke-miterlimit="2" fill="#ffffff" stroke="#ffffff"></path></g>
          <g id="path725094" aria-label="^l" transform="translate(0 315.478) translate(227.7617123333334 35.71999999999999) scale(1.2833333333333334) translate(-494.88931 50.4)"><path class="c3" d="M100.36086,71.91542v50.40442h-3.60034V71.91542H100.36086z" transform="translate(398.12879 -122.31542)" stroke-width="0" stroke-linejoin="miter" stroke-miterlimit="2" fill="#c8c8c8" stroke="#c8c8c8"></path></g>
          <g id="path725096" aria-label="^a" transform="translate(0 315.478) translate(236.33181233333337 48.65599999999999) scale(1.2833333333333334) translate(-501.56731 40.32)"><path class="c3" d="M78.11256,102.51808c0-13.39307,7.56067-20.52173,20.30576-20.52173 c8.64075,0,14.04123,3.24023,16.77744,9.07275v-8.35278h3.60034v39.60352h-3.60034v-8.35278 c-2.80823,5.97656-8.35272,9.07275-16.77744,9.07275C85.24117,123.03981,78.11256,115.33522,78.11256,102.51808z M98.41832,119.43959c11.23297,0,16.77744-5.18445,16.77744-16.92151c0-11.30493-5.18445-16.92139-16.77744-16.92139 c-11.23297,0-16.70544,5.18433-16.70544,16.92139C81.71288,113.82301,86.89732,119.43959,98.41832,119.43959z" transform="translate(423.45475 -122.31635)" stroke-width="0" stroke-linejoin="miter" stroke-miterlimit="2" fill="#c8c8c8" stroke="#c8c8c8"></path></g>
          <g id="path725098" aria-label="^n" transform="translate(0 315.478) translate(293.63281250000006 48.65599999999999) scale(1.2833333333333334) translate(-546.21744 40.32)"><path class="c3" d="M98.92189,85.23659c-10.3689,0-14.47314,4.46436-14.47314,15.48132v21.60193H80.8484V82.71632h3.60034 v6.62463c2.44824-4.82434,7.05664-7.3446,14.47314-7.3446c11.66504,0,17.35352,4.68042,17.35352,18.72156v21.60193h-3.60034 v-21.60193C112.67506,90.13307,108.78688,85.23659,98.92189,85.23659z" transform="translate(465.36904 -122.31635)" stroke-width="0" stroke-linejoin="miter" stroke-miterlimit="2" fill="#c8c8c8" stroke="#c8c8c8"></path></g>
          <g id="path725100" aria-label="^c" transform="translate(0 315.478) translate(342.5398373333334 48.65599999999999) scale(1.2833333333333334) translate(-584.32681 40.32)"><path class="c3" d="M98.67,85.59669c-11.23297,0-16.70544,5.18433-16.70544,16.92139 c0,11.30493,5.18445,16.92151,16.70544,16.92151c9.79285,0,15.26532-3.96033,16.48944-12.6731h3.60034 c-1.51215,10.65686-8.78479,16.27332-20.08978,16.27332c-13.17712,0-20.30573-7.70459-20.30573-20.52173 c0-13.39307,7.56067-20.52173,20.30573-20.52173c11.66504,0,18.57764,5.97656,20.08978,16.12939h-3.60034 C113.8633,89.77296,108.67885,85.59669,98.67,85.59669z" transform="translate(505.96254 -122.31635)" stroke-width="0" stroke-linejoin="miter" stroke-miterlimit="2" fill="#c8c8c8" stroke="#c8c8c8"></path></g>
          <g id="path725102" aria-label="^e" transform="translate(0 315.478) translate(397.4023373333334 48.65599999999999) scale(1.2833333333333334) translate(-627.07681 40.32)"><path class="c3" d="M78.29225,102.51808c0-13.39307,7.56067-20.52173,20.30579-20.52173s20.30579,7.12866,20.30579,20.52173 H81.89259c0,11.30493,5.18445,16.92151,16.70544,16.92151c9.79285,0,15.26526-3.96033,16.48938-12.6731h3.60034 c-1.51208,10.65686-8.78467,16.27332-20.08972,16.27332C85.42091,123.03981,78.29225,115.33522,78.29225,102.51808z M115.15944,99.27785c-1.00806-9.43286-6.40845-13.68115-16.5614-13.68115c-10.15283,0-15.55334,4.24829-16.5614,13.68115 H115.15944z" transform="translate(548.78456 -122.31635)" stroke-width="0" stroke-linejoin="miter" stroke-miterlimit="2" fill="#c8c8c8" stroke="#c8c8c8"></path></g>
        </g>
        <image xlink:href="" id="icon" style="display: none;" x="0" y="0"></image>
      </g>
    </g>
  </svg>